<svg xmlns="http://www.w3.org/2000/svg" viewBox="0 0 48 48" width="48" height="48" preserveAspectRatio="xMidYMid meet" style="width: 100%; height: 100%; transform: translate3d(0px, 0px, 0px);">
  <defs>
      <clipPath id="__lottie_element_66">
        <rect width="48" height="48" x="0" y="0"></rect>
      </clipPath>
  </defs>
  <g clip-path="url(#__lottie_element_66)">
      <g style="display: none;" transform="matrix(1,0,0,1,0,0)" opacity="1">
        <g opacity="1" transform="matrix(1,0,0,1,24,24)">
            <path fill="rgb(199,230,200)" fill-opacity="1" d=" M20,0 C20,11.045000076293945 11.045000076293945,20 0,20 C-11.045000076293945,20 -20,11.045000076293945 -20,0 C-20,-11.045000076293945 -11.045000076293945,-20 0,-20 C11.045000076293945,-20 20,-11.045000076293945 20,0z" data-darkreader-inline-fill="" style="--darkreader-inline-fill:#1f4529;"></path>
        </g>
      </g>
      <g style="display: none;" transform="matrix(1,0,0,1,0,0)" opacity="1">
        <g opacity="1" transform="matrix(1,0,0,1,25,23.500999450683594)">
            <path stroke-linecap="butt" stroke-linejoin="miter" fill-opacity="0" stroke-miterlimit="10" stroke="rgb(75,174,80)" stroke-opacity="1" stroke-width="4" d=" M-10.998000144958496,0.4970000088214874 C-10.998000144958496,0.4970000088214874 -3.992000102996826,7.502999782562256 -3.992000102996826,7.502999782562256 C-3.992000102996826,7.502999782562256 10.998000144958496,-7.502999782562256 10.998000144958496,-7.502999782562256" data-darkreader-inline-stroke="" style="--darkreader-inline-stroke:#62bb66;"></path>
        </g>
      </g>
      <g transform="matrix(0.9700009226799011,0,0,0.9700009226799011,0.7199783325195312,0.7199783325195312)" opacity="1" style="display: block;">
        <g opacity="1" transform="matrix(1,0,0,1,24,24)">
            <path fill="rgb(199,230,200)" fill-opacity="1" d=" M20,0 C20,11.045000076293945 11.045000076293945,20 0,20 C-11.045000076293945,20 -20,11.045000076293945 -20,0 C-20,-11.045000076293945 -11.045000076293945,-20 0,-20 C11.045000076293945,-20 20,-11.045000076293945 20,0z" data-darkreader-inline-fill="" style="--darkreader-inline-fill:#1f4529;"></path>
        </g>
      </g>
      <g transform="matrix(1,0,0,1,0,0)" opacity="1" style="display: block;">
        <g opacity="1" transform="matrix(1,0,0,1,25,23.500999450683594)">
            <path stroke-linecap="butt" stroke-linejoin="miter" fill-opacity="0" stroke-miterlimit="10" stroke="rgb(75,174,80)" stroke-opacity="1" stroke-width="4" d=" M4,-0.49799999594688416 C7.574999809265137,-4.076000213623047 10.998000144958496,-7.502999782562256 10.998000144958496,-7.502999782562256" data-darkreader-inline-stroke="" style="--darkreader-inline-stroke:#62bb66;"></path>
        </g>
      </g>
  </g>
</svg>
